HIERARCHY
ROOT Hips
{
	OFFSET 0.000000 0.000000 0.000000
	CHANNELS 6 Xposition Yposition Zposition Zrotation Xrotation Yrotation
	JOINT Spine
	{
		OFFSET 0.000000 -0.000000 0.070167
		CHANNELS 6 Xposition Yposition Zposition Zrotation Xrotation Yrotation
		JOINT Spine1
		{
			OFFSET 0.000000 -0.000000 0.166666
			CHANNELS 6 Xposition Yposition Zposition Zrotation Xrotation Yrotation
			JOINT Neck
			{
				OFFSET 0.000000 -0.000000 0.183780
				CHANNELS 6 Xposition Yposition Zposition Zrotation Xrotation Yrotation
				JOINT Head
				{
					OFFSET 0.000000 -0.017114 0.132633
					CHANNELS 6 Xposition Yposition Zposition Zrotation Xrotation Yrotation
					End Site
					{
						OFFSET 0.000000 -0.000000 0.171140
					}
				}
			}
			JOINT LeftShoulder
			{
				OFFSET 0.034466 0.004091 0.144174
				CHANNELS 6 Xposition Yposition Zposition Zrotation Xrotation Yrotation
				JOINT LeftArm
				{
					OFFSET 0.121044 0.000000 0.000000
					CHANNELS 6 Xposition Yposition Zposition Zrotation Xrotation Yrotation
					JOINT LeftForeArm
					{
						OFFSET 0.257070 0.000000 0.000000
						CHANNELS 6 Xposition Yposition Zposition Zrotation Xrotation Yrotation
						JOINT LeftHand
						{
							OFFSET 0.224060 0.000000 0.000000
							CHANNELS 6 Xposition Yposition Zposition Zrotation Xrotation Yrotation
							End Site
							{
								OFFSET 0.128355 0.000000 0.000000
							}
						}
					}
				}
			}
			JOINT RightShoulder
			{
				OFFSET -0.033538 0.004091 0.144174
				CHANNELS 6 Xposition Yposition Zposition Zrotation Xrotation Yrotation
				JOINT RightArm
				{
					OFFSET -0.121044 0.000000 0.000000
					CHANNELS 6 Xposition Yposition Zposition Zrotation Xrotation Yrotation
					JOINT RightForeArm
					{
						OFFSET -0.257070 0.000000 0.000000
						CHANNELS 6 Xposition Yposition Zposition Zrotation Xrotation Yrotation
						JOINT RightHand
						{
							OFFSET -0.224060 0.000000 0.000000
							CHANNELS 6 Xposition Yposition Zposition Zrotation Xrotation Yrotation
							End Site
							{
								OFFSET -0.128355 0.000000 0.000000
							}
						}
					}
				}
			}
		}
	}
	JOINT LeftUpLeg
	{
		OFFSET 0.085570 0.000000 0.000000
		CHANNELS 6 Xposition Yposition Zposition Zrotation Xrotation Yrotation
		JOINT LeftLeg
		{
			OFFSET 0.000000 0.000000 -0.385526
			CHANNELS 6 Xposition Yposition Zposition Zrotation Xrotation Yrotation
			JOINT LeftFoot
			{
				OFFSET 0.000000 0.000000 -0.365921
				CHANNELS 6 Xposition Yposition Zposition Zrotation Xrotation Yrotation
				JOINT LeftToeBase
				{
					OFFSET 0.000000 -0.128355 -0.055620
					CHANNELS 6 Xposition Yposition Zposition Zrotation Xrotation Yrotation
					End Site
					{
						OFFSET 0.000000 -0.034228 0.000000
					}
				}
			}
		}
	}
	JOINT RightUpLeg
	{
		OFFSET -0.085570 0.000000 0.000000
		CHANNELS 6 Xposition Yposition Zposition Zrotation Xrotation Yrotation
		JOINT RightLeg
		{
			OFFSET 0.000000 0.000000 -0.385526
			CHANNELS 6 Xposition Yposition Zposition Zrotation Xrotation Yrotation
			JOINT RightFoot
			{
				OFFSET 0.000000 0.000000 -0.365921
				CHANNELS 6 Xposition Yposition Zposition Zrotation Xrotation Yrotation
				JOINT RightToeBase
				{
					OFFSET 0.000000 -0.128355 -0.055620
					CHANNELS 6 Xposition Yposition Zposition Zrotation Xrotation Yrotation
					End Site
					{
						OFFSET 0.000000 -0.034228 0.000000
					}
				}
			}
		}
	}
}
MOTION
Frames: 9
Frame Time: 0.016667
-0.012665 -0.060406 0.740788 -11.106237 -12.373088 -0.846629 -0.000000 -0.000000 0.070167 -6.204697 1.915075 0.926308 0.000000 -0.000000 0.166666 -1.217459 10.058016 -9.587226 -0.000000 -0.000000 0.183780 1.812000 1.661118 -4.905879 0.000000 -0.017114 0.132633 2.947518 9.736147 10.163917 0.034466 0.004091 0.144174 -2.671866 9.404633 -6.356775 0.121044 -0.000000 0.000000 -27.602150 -0.479124 73.588834 0.257070 -0.000000 -0.000000 -51.881328 14.900937 5.078048 0.224060 -0.000000 0.000000 0.771692 17.300987 3.662311 -0.033538 0.004091 0.144174 -14.222994 6.902850 2.253451 -0.121044 0.000000 0.000000 53.845158 5.332385 -63.934839 -0.257070 0.000000 -0.000000 37.730959 3.950137 14.891455 -0.224060 -0.000000 0.000000 9.662201 -0.543244 7.373621 0.085570 -0.000000 0.000000 2.355264 -7.936493 -9.897021 -0.000000 0.000000 -0.385526 49.112707 73.389467 -39.145972 0.000000 0.000000 -0.365921 11.874950 -16.163004 8.319663 -0.000000 -0.128355 -0.055620 -0.000001 0.000001 -0.000002 -0.085570 0.000000 0.000000 -1.893708 -13.576141 2.646249 -0.000000 0.000000 -0.385526 52.868577 40.834890 -41.137922 0.000000 0.000000 -0.365921 -27.985688 -23.539511 8.058842 -0.000000 -0.128355 -0.055620 -0.000000 0.000002 0.000000 
-0.013866 -0.064850 0.737479 -11.115176 -12.203431 -0.666550 -0.000000 0.000000 0.070167 -6.317728 1.677516 0.632607 0.000000 -0.000000 0.166666 -1.230711 10.661846 -9.325719 -0.000000 -0.000000 0.183780 1.894528 1.289326 -4.675737 0.000000 -0.017114 0.132633 3.057974 9.331504 10.156356 0.034466 0.004091 0.144174 -2.414169 9.333681 -6.405771 0.121044 0.000000 0.000000 -26.934568 -0.462918 73.625806 0.257070 0.000000 0.000000 -50.641539 15.395863 4.558660 0.224060 -0.000000 -0.000000 0.553445 17.482043 3.245641 -0.033538 0.004091 0.144174 -13.984711 6.841736 2.278109 -0.121044 0.000000 -0.000000 54.314118 4.754007 -63.731286 -0.257070 0.000000 -0.000000 37.671522 4.064130 15.004754 -0.224060 -0.000000 0.000000 9.998416 -0.349095 8.382894 0.085570 0.000000 -0.000000 2.335537 -10.197019 -10.707921 0.000000 0.000000 -0.385526 62.991201 70.229057 -52.468011 -0.000000 0.000000 -0.365921 6.511054 -15.986138 8.605723 -0.000000 -0.128355 -0.055620 -0.000001 0.000003 -0.000004 -0.085570 0.000000 -0.000000 -2.006974 -13.829010 2.448400 0.000000 0.000000 -0.385526 53.808384 41.257324 -42.309501 -0.000000 0.000000 -0.365921 -28.321091 -24.167747 7.446419 0.000000 -0.128355 -0.055620 0.000000 0.000002 0.000000 
-0.014981 -0.069338 0.735101 -11.092312 -12.039889 -0.511977 0.000000 -0.000000 0.070167 -6.358813 1.459368 0.472150 -0.000000 -0.000000 0.166666 -1.218527 11.141922 -9.198161 -0.000000 -0.000000 0.183780 1.822789 0.962337 -4.577168 0.000000 -0.017114 0.132633 3.021645 9.044838 10.386714 0.034466 0.004091 0.144174 -2.274240 9.375792 -6.340711 0.121044 -0.000000 -0.000000 -26.295748 -0.486464 73.607897 0.257070 -0.000000 0.000000 -49.387588 15.603118 4.038747 0.224060 0.000000 0.000000 0.519061 17.396944 2.581674 -0.033538 0.004091 0.144174 -13.781727 6.696089 2.275374 -0.121044 -0.000000 0.000000 54.844237 4.432546 -63.564602 -0.257070 0.000000 -0.000000 37.683878 3.896477 15.062176 -0.224060 -0.000000 0.000000 10.185186 -0.259427 11.343486 0.085570 0.000000 0.000000 2.370451 -11.820046 -11.210743 -0.000000 0.000000 -0.385526 56.250662 72.670884 -46.013530 0.000000 0.000000 -0.365921 9.861465 -17.152661 7.919612 -0.000000 -0.128355 -0.055620 -0.000003 0.000001 -0.000002 -0.085570 0.000000 0.000000 -2.211719 -13.944836 2.226073 0.000000 0.000000 -0.385526 54.892151 41.395874 -43.322305 -0.000000 0.000000 -0.365921 -28.761988 -24.764975 7.414919 -0.000000 -0.128355 -0.055620 0.000000 -0.000000 0.000000 
-0.015899 -0.074059 0.733377 -11.028188 -11.948695 -0.454131 -0.000000 -0.000000 0.070167 -6.324097 1.499148 0.496432 0.000000 -0.000000 0.166666 -1.210027 11.137804 -9.168643 0.000000 -0.000000 0.183780 1.521427 1.074535 -4.670381 -0.000000 -0.017114 0.132633 2.775397 8.621571 10.878056 0.034466 0.004091 0.144174 -2.194683 9.533655 -6.155346 0.121044 0.000000 0.000000 -25.497540 -0.532369 73.598143 0.257070 -0.000000 -0.000000 -48.031410 16.079908 3.688463 0.224060 0.000000 -0.000000 -0.039776 17.653495 2.642596 -0.033538 0.004091 0.144174 -13.702106 6.764058 2.250176 -0.121044 -0.000000 -0.000000 55.344114 4.273174 -63.365284 -0.257070 0.000000 0.000000 37.767063 3.753729 15.089636 -0.224060 -0.000000 0.000000 10.664777 -0.268174 12.488945 0.085570 -0.000000 0.000000 2.403186 -13.426934 -11.598331 0.000000 0.000000 -0.385526 56.300590 72.303652 -46.019861 0.000000 0.000000 -0.365921 9.995923 -17.984672 8.341136 -0.000000 -0.128355 -0.055620 -0.000000 0.000003 -0.000002 -0.085570 -0.000000 0.000000 -2.244097 -13.823913 2.148103 0.000000 0.000000 -0.385526 55.436626 41.532031 -43.911522 0.000000 0.000000 -0.365921 -28.970562 -25.406847 7.565258 -0.000000 -0.128355 -0.055620 -0.000001 -0.000000 -0.000000 
-0.016518 -0.078866 0.732356 -10.958256 -11.869642 -0.467628 -0.000000 0.000000 0.070167 -6.234161 1.507972 0.557605 -0.000000 -0.000000 0.166666 -1.187022 11.126791 -9.103595 0.000000 -0.000000 0.183780 1.608148 0.943076 -4.512519 0.000000 -0.017114 0.132633 2.849778 8.603332 10.798643 0.034466 0.004091 0.144174 -2.136106 9.598364 -5.981202 0.121044 -0.000000 -0.000000 -25.011681 -0.466112 73.630361 0.257070 0.000000 -0.000000 -46.626030 16.194264 3.225782 0.224060 -0.000000 -0.000000 -0.287945 17.521194 2.079063 -0.033538 0.004091 0.144174 -13.767290 6.747409 2.236454 -0.121044 0.000000 -0.000000 55.993023 4.182175 -63.193662 -0.257070 0.000000 -0.000000 37.627970 3.848112 15.065125 -0.224060 -0.000000 -0.000000 10.732345 -0.204963 11.773344 0.085570 0.000000 -0.000000 2.803289 -14.624984 -11.540919 -0.000000 0.000000 -0.385526 38.589548 74.841429 -29.187164 0.000000 0.000000 -0.365921 16.304341 -19.552479 7.694145 -0.000000 -0.128355 -0.055620 -0.000000 -0.000001 0.000000 -0.085570 0.000000 -0.000000 -1.863323 -13.636738 2.272220 0.000000 0.000000 -0.385526 56.132346 41.179289 -44.778068 0.000000 0.000000 -0.365921 -29.530654 -26.202904 8.112024 -0.000000 -0.128355 -0.055620 -0.000001 -0.000000 0.000001 
-0.017032 -0.083768 0.731948 -10.778800 -11.779284 -0.481825 -0.000000 -0.000000 0.070167 -6.139724 1.613351 0.644652 -0.000000 -0.000000 0.166666 -1.195236 10.771379 -8.979793 -0.000000 -0.000000 0.183780 1.216553 1.325394 -4.662807 0.000000 -0.017114 0.132633 2.499242 8.191139 11.162331 0.034466 0.004091 0.144174 -2.139646 9.803451 -5.871771 0.121044 0.000000 0.000000 -24.789361 -0.336760 73.744405 0.257070 -0.000000 -0.000000 -45.171364 16.355091 2.551274 0.224060 0.000000 -0.000000 -0.521583 17.365151 1.576625 -0.033538 0.004091 0.144174 -13.769710 6.698180 2.071107 -0.121044 0.000000 0.000000 56.587209 4.404259 -63.170685 -0.257070 0.000000 0.000000 37.501495 3.638151 15.012074 -0.224060 -0.000000 0.000000 10.719621 -0.355023 12.033310 0.085570 0.000000 -0.000000 2.792719 -16.459808 -11.879926 0.000000 0.000000 -0.385526 56.890302 69.696541 -46.606568 0.000000 0.000000 -0.365921 8.706988 -18.586220 7.130878 -0.000000 -0.128355 -0.055620 -0.000000 -0.000000 -0.000002 -0.085570 -0.000000 0.000000 -3.468504 -13.274889 1.671608 0.000000 0.000000 -0.385526 56.630857 42.254764 -43.727103 -0.000000 0.000000 -0.365921 -28.880895 -27.009450 7.721397 -0.000000 -0.128355 -0.055620 -0.000000 0.000003 0.000001 
-0.017330 -0.088765 0.732219 -10.548923 -11.737720 -0.492318 -0.000000 -0.000000 0.070167 -6.036512 1.824751 0.737521 -0.000000 -0.000000 0.166666 -1.208392 10.288807 -8.867092 0.000000 -0.000000 0.183780 0.937123 1.554769 -4.918141 0.000000 -0.017114 0.132633 2.267796 8.098388 11.700368 0.034466 0.004091 0.144174 -2.087586 9.915018 -5.817217 0.121044 0.000000 0.000000 -24.679811 -0.192281 73.896725 0.257070 0.000000 -0.000000 -43.665806 16.435804 2.077093 0.224060 0.000000 -0.000000 -0.857309 17.223659 1.376816 -0.033538 0.004091 0.144174 -13.707017 6.621586 1.983674 -0.121044 0.000000 0.000000 57.008918 4.643450 -63.288137 -0.257070 0.000000 -0.000000 37.391546 3.461582 14.957670 -0.224060 0.000000 0.000000 10.697418 -0.457448 12.475425 0.085570 -0.000000 -0.000000 2.710192 -17.541036 -11.972131 0.000000 0.000000 -0.385526 48.590051 70.425008 -38.421522 -0.000000 0.000000 -0.365921 11.791155 -19.551623 7.091313 -0.000000 -0.128355 -0.055620 -0.000001 0.000001 -0.000001 -0.085570 0.000000 -0.000000 -1.846542 -12.781724 2.281751 -0.000000 0.000000 -0.385526 55.137850 41.886343 -43.955928 -0.000000 0.000000 -0.365921 -29.068766 -27.203616 7.943162 -0.000000 -0.128355 -0.055620 0.000001 0.000001 0.000000 
-0.017730 -0.093437 0.733241 -10.327195 -11.545180 -0.395208 -0.000000 0.000000 0.070167 -5.868335 1.921967 0.766552 0.000000 -0.000000 0.166666 -1.195279 9.781434 -8.824304 -0.000000 -0.000000 0.183780 0.874401 1.828308 -4.773464 -0.000000 -0.017114 0.132633 2.183160 7.851789 11.482258 0.034466 0.004091 0.144174 -2.002636 9.967434 -5.772978 0.121044 0.000000 0.000000 -24.586183 -0.158388 74.011944 0.257070 -0.000000 -0.000000 -42.065113 16.424291 1.785785 0.224060 0.000000 -0.000000 -1.188788 17.069225 1.385800 -0.033538 0.004091 0.144174 -13.847749 6.689912 1.946756 -0.121044 0.000000 0.000000 57.659453 4.793308 -63.231904 -0.257070 0.000000 0.000000 37.202497 3.372100 14.884118 -0.224060 -0.000000 0.000000 10.655065 -0.534524 12.097222 0.085570 0.000000 -0.000000 2.912103 -18.762700 -12.018891 0.000000 0.000000 -0.385526 40.668005 70.098484 -30.868569 0.000000 0.000000 -0.365921 14.599840 -20.116292 7.345590 0.000000 -0.128355 -0.055620 0.000001 0.000005 -0.000004 -0.085570 0.000000 0.000000 -1.627203 -12.330100 2.127921 0.000000 0.000000 -0.385526 54.487103 41.834789 -43.281147 0.000000 0.000000 -0.365921 -29.395642 -27.373172 7.682483 0.000000 -0.128355 -0.055620 -0.000000 0.000002 -0.000000 
-0.017954 -0.098402 0.734907 -10.069295 -11.441248 -0.325138 0.000000 0.000000 0.070167 -5.687922 2.102963 0.811146 0.000000 -0.000000 0.166666 -1.186140 9.209514 -8.734879 -0.000000 -0.000000 0.183780 0.659337 1.932417 -4.720967 0.000000 -0.017114 0.132633 1.918650 8.062453 11.347517 0.034466 0.004091 0.144174 -1.972411 10.033063 -5.757776 0.121044 -0.000000 -0.000000 -24.328562 -0.216307 74.116200 0.257070 -0.000000 0.000000 -40.491837 16.221426 1.747322 0.224060 0.000000 -0.000000 -1.300280 16.826801 1.246408 -0.033538 0.004091 0.144174 -13.855429 6.669156 1.894722 -0.121044 0.000000 0.000000 58.107616 5.080603 -63.373500 -0.257070 0.000000 0.000000 37.107421 3.277547 14.832973 -0.224060 -0.000000 0.000000 10.483475 -0.653392 11.696147 0.085570 0.000000 -0.000000 3.197501 -19.836005 -11.916639 -0.000000 -0.000000 -0.385526 37.413560 68.343658 -27.917751 0.000000 0.000000 -0.365921 15.154965 -20.111314 7.142455 -0.000000 -0.128355 -0.055620 -0.000003 -0.000000 -0.000000 -0.085570 0.000000 -0.000000 -1.374260 -11.667432 1.981287 0.000000 0.000000 -0.385526 53.732207 41.667009 -42.387529 -0.000000 0.000000 -0.365921 -29.690101 -27.328634 7.611789 -0.000000 -0.128355 -0.055620 0.000000 0.000002 -0.000000 
